<?xml version="1.0" encoding="UTF-8" standalone="no"?>
<!DOCTYPE svg PUBLIC "-//W3C//DTD SVG 1.1//EN"
 "http://www.w3.org/Graphics/SVG/1.1/DTD/svg11.dtd">
<!-- Generated by graphviz version 2.38.0 (20140413.2041)
 -->
<!-- Title: Classes Pages: 1 -->
<svg width="569pt" height="205pt"
 viewBox="0.00 0.00 569.00 205.00" xmlns="http://www.w3.org/2000/svg" xmlns:xlink="http://www.w3.org/1999/xlink">
<g id="graph0" class="graph" transform="scale(1 1) rotate(0) translate(4 201)">
<title>Classes</title>
<polygon fill="white" stroke="none" points="-4,4 -4,-201 565,-201 565,4 -4,4"/>
<!-- IScapeTranslate -->
<g id="node1" class="node"><title>IScapeTranslate</title>
<g id="a_node1"><a xlink:href="ooScapeTranslate.IScapeTranslate.html" xlink:title="IScapeTranslate">
<ellipse fill="none" stroke="black" cx="317.038" cy="-132.041" rx="69.5877" ry="18"/>
<text text-anchor="middle" x="317.038" y="-128.341" font-family="Times New Roman,serif" font-size="14.00">IScapeTranslate</text>
</a>
</g>
</g>
<!-- IInterface -->
<g id="node2" class="node"><title>IInterface</title>
<ellipse fill="none" stroke="black" cx="412.196" cy="-179.046" rx="45.4919" ry="18"/>
<text text-anchor="middle" x="412.196" y="-175.346" font-family="Times New Roman,serif" font-size="14.00">IInterface</text>
</g>
<!-- IScapeTranslate&#45;&gt;IInterface -->
<g id="edge1" class="edge"><title>IScapeTranslate&#45;&gt;IInterface</title>
<path fill="none" stroke="black" d="M349.52,-148.086C357.578,-152.066 366.281,-156.365 374.563,-160.457"/>
<polygon fill="black" stroke="black" points="373.163,-163.668 383.679,-164.959 376.263,-157.392 373.163,-163.668"/>
</g>
<!-- IScapeTranslateList -->
<g id="node3" class="node"><title>IScapeTranslateList</title>
<g id="a_node3"><a xlink:href="ooScapeTranslate.List.IScapeTranslateList.html" xlink:title="IScapeTranslateList">
<ellipse fill="none" stroke="black" cx="477.931" cy="-134.086" rx="83.3857" ry="18"/>
<text text-anchor="middle" x="477.931" y="-130.386" font-family="Times New Roman,serif" font-size="14.00">IScapeTranslateList</text>
</a>
</g>
</g>
<!-- IScapeTranslateList&#45;&gt;IInterface -->
<g id="edge2" class="edge"><title>IScapeTranslateList&#45;&gt;IInterface</title>
<path fill="none" stroke="black" d="M452.704,-151.34C449.717,-153.383 446.641,-155.487 443.582,-157.579"/>
<polygon fill="black" stroke="black" points="441.373,-154.85 435.095,-163.384 445.325,-160.628 441.373,-154.85"/>
</g>
<!-- TScapeTranslate -->
<g id="node4" class="node"><title>TScapeTranslate</title>
<g id="a_node4"><a xlink:href="ooScapeTranslate.TScapeTranslate.html" xlink:title="TScapeTranslate">
<ellipse fill="none" stroke="black" cx="72.106" cy="-18.2548" rx="72.2875" ry="18"/>
<text text-anchor="middle" x="72.106" y="-14.5548" font-family="Times New Roman,serif" font-size="14.00">TScapeTranslate</text>
</a>
</g>
</g>
<!-- TInterfacedObject -->
<g id="node5" class="node"><title>TInterfacedObject</title>
<ellipse fill="none" stroke="black" cx="175.258" cy="-65.4284" rx="77.1866" ry="18"/>
<text text-anchor="middle" x="175.258" y="-61.7284" font-family="Times New Roman,serif" font-size="14.00">TInterfacedObject</text>
</g>
<!-- TScapeTranslate&#45;&gt;TInterfacedObject -->
<g id="edge3" class="edge"><title>TScapeTranslate&#45;&gt;TInterfacedObject</title>
<path fill="none" stroke="black" d="M106.741,-34.0942C114.397,-37.5955 122.614,-41.3532 130.605,-45.0075"/>
<polygon fill="black" stroke="black" points="129.285,-48.2524 139.834,-49.2285 132.196,-41.8865 129.285,-48.2524"/>
</g>
<!-- TScapeTranslateList -->
<g id="node6" class="node"><title>TScapeTranslateList</title>
<g id="a_node6"><a xlink:href="ooScapeTranslate.List.TScapeTranslateList.html" xlink:title="TScapeTranslateList">
<ellipse fill="none" stroke="black" cx="239.342" cy="-19.8868" rx="85.5853" ry="18"/>
<text text-anchor="middle" x="239.342" y="-16.1868" font-family="Times New Roman,serif" font-size="14.00">TScapeTranslateList</text>
</a>
</g>
</g>
<!-- TScapeTranslateList&#45;&gt;TInterfacedObject -->
<g id="edge4" class="edge"><title>TScapeTranslateList&#45;&gt;TInterfacedObject</title>
<path fill="none" stroke="black" d="M214.748,-37.3642C212.586,-38.9005 210.377,-40.471 208.161,-42.0453"/>
<polygon fill="black" stroke="black" points="205.803,-39.4273 199.679,-48.0731 209.858,-45.1332 205.803,-39.4273"/>
</g>
</g>
</svg>
