<?xml version="1.0" encoding="UTF-8" standalone="no"?>
<!DOCTYPE svg PUBLIC "-//W3C//DTD SVG 1.1//EN"
 "http://www.w3.org/Graphics/SVG/1.1/DTD/svg11.dtd">
<!-- Generated by graphviz version 2.38.0 (20140413.2041)
 -->
<!-- Title: Uses Pages: 1 -->
<svg width="519pt" height="136pt"
 viewBox="0.00 0.00 519.36 136.00" xmlns="http://www.w3.org/2000/svg" xmlns:xlink="http://www.w3.org/1999/xlink">
<g id="graph0" class="graph" transform="scale(1 1) rotate(0) translate(4 132)">
<title>Uses</title>
<polygon fill="white" stroke="none" points="-4,4 -4,-132 515.361,-132 515.361,4 -4,4"/>
<!-- ooScapeTranslate -->
<g id="node1" class="node"><title>ooScapeTranslate</title>
<g id="a_node1"><a xlink:href="ooScapeTranslate.html" xlink:title="ooScapeTranslate">
<ellipse fill="none" stroke="black" cx="307.026" cy="-110" rx="76.0865" ry="18"/>
<text text-anchor="middle" x="307.026" y="-106.3" font-family="Times New Roman,serif" font-size="14.00">ooScapeTranslate</text>
</a>
</g>
</g>
<!-- SysUtils -->
<g id="node2" class="node"><title>SysUtils</title>
<ellipse fill="none" stroke="black" cx="470.415" cy="-87" rx="40.8928" ry="18"/>
<text text-anchor="middle" x="470.415" y="-83.3" font-family="Times New Roman,serif" font-size="14.00">SysUtils</text>
</g>
<!-- ooScapeTranslate&#45;&gt;SysUtils -->
<g id="edge1" class="edge"><title>ooScapeTranslate&#45;&gt;SysUtils</title>
<path fill="none" stroke="black" d="M372.739,-100.778C388.842,-98.4827 405.829,-96.0617 420.995,-93.9004"/>
<polygon fill="black" stroke="black" points="421.765,-97.3262 431.171,-92.4502 420.777,-90.3962 421.765,-97.3262"/>
</g>
<!-- ooScapeTranslate.List -->
<g id="node3" class="node"><title>ooScapeTranslate.List</title>
<g id="a_node3"><a xlink:href="ooScapeTranslate.List.html" xlink:title="ooScapeTranslate.List">
<ellipse fill="none" stroke="black" cx="92.2918" cy="-64" rx="92.0841" ry="18"/>
<text text-anchor="middle" x="92.2918" y="-60.3" font-family="Times New Roman,serif" font-size="14.00">ooScapeTranslate.List</text>
</a>
</g>
</g>
<!-- ooScapeTranslate.List&#45;&gt;ooScapeTranslate -->
<g id="edge4" class="edge"><title>ooScapeTranslate.List&#45;&gt;ooScapeTranslate</title>
<path fill="none" stroke="black" d="M154.823,-77.3051C181.599,-83.095 213.015,-89.8881 240.253,-95.7778"/>
<polygon fill="black" stroke="black" points="239.569,-99.2106 250.083,-97.9032 241.048,-92.3687 239.569,-99.2106"/>
</g>
<!-- ooScapeTranslate.List&#45;&gt;SysUtils -->
<g id="edge2" class="edge"><title>ooScapeTranslate.List&#45;&gt;SysUtils</title>
<path fill="none" stroke="black" d="M180.527,-69.3345C254.79,-73.8756 358.833,-80.2379 419.674,-83.9583"/>
<polygon fill="black" stroke="black" points="419.59,-87.4597 429.785,-84.5767 420.018,-80.4727 419.59,-87.4597"/>
</g>
<!-- Generics.Collections -->
<g id="node4" class="node"><title>Generics.Collections</title>
<ellipse fill="none" stroke="black" cx="307.026" cy="-18" rx="86.3847" ry="18"/>
<text text-anchor="middle" x="307.026" y="-14.3" font-family="Times New Roman,serif" font-size="14.00">Generics.Collections</text>
</g>
<!-- ooScapeTranslate.List&#45;&gt;Generics.Collections -->
<g id="edge3" class="edge"><title>ooScapeTranslate.List&#45;&gt;Generics.Collections</title>
<path fill="none" stroke="black" d="M154.823,-50.6949C180.394,-45.1657 210.196,-38.7216 236.549,-33.0231"/>
<polygon fill="black" stroke="black" points="237.43,-36.4135 246.465,-30.879 235.951,-29.5717 237.43,-36.4135"/>
</g>
</g>
</svg>
